<svg id="ZEISS" xmlns="http://www.w3.org/2000/svg" viewBox="0 0 701.07 169.5"><defs><style>.cls-1{fill:#fff;}</style></defs><title>zeiss</title><path class="cls-1" d="M586.4,112.4c-6.2-1.4-14.4,0-21.3-.7v56.9H695.4c4.8-5.5,6.2-13,5.5-23.3-2.7-25.4-19.9-47.3-35-64.5-15.8-18.5-32.2-35.7-38.4-59.7,30.9-2.1,46.6,11.7,51.4,35.7,5.5,1.4,13,0,19.9.7V.6H569.9c-4.8,4.2-6.2,13.8-5.5,22.7,1.4,13,7.5,24.7,14.4,35.7,18.5,30.2,48,54.9,59,89.1C604.9,151.5,589.1,138.5,586.4,112.4Z"/><path class="cls-1" d="M438.3,112.4c-6.2-1.4-14.4,0-21.3-.7v56.9H548c6.9-8.9,6.2-24,2.7-35.7-5.5-16.5-15.8-32.2-26.7-45.9-17.1-21.3-37.7-39.1-43.9-66.5,30.9-2.1,46.6,11,50.7,35.7,5.5,1.4,13.7,0,19.9.7V0H421.1c-4.8,4.8-5.5,14.4-4.8,23.3,2.1,16.5,10.3,32.2,19.2,44.6,17.1,25.4,45.3,48,54.2,80.2C456.8,152.2,441.7,138.5,438.3,112.4Z"/><path class="cls-1" d="M6.8.8c-1.3-.1-.6.6-.6,1.3V57.6c6.2,0,14.4.7,19.9-.7,4.8-25.4,20.6-38.4,50.7-35.7C58.3,77.5,0,96.7,0,168.7H138.5V111.8c-6.9,0-15.1-.7-20.6.7-3.4,25.4-19.9,39.8-51.4,35C85.7,92.6,139.2,72.1,141.9.8Z"/><path class="cls-1" d="M152.9,148.1v21.3H295.5V112.5H274.2c-2.1,25.4-17.8,39.8-48,35.7.7-17.1-.7-35.7.7-51.4,13.7-2.1,15.1,8.9,16.5,19.2,5.5,1.4,13.7,0,19.9.7V55H242c1.4,13-2.1,21.3-15.8,19.9V22.8c32.2-4.1,44.6,11.7,48.7,35.7,5.5,1.4,13.7,0,19.9.7V1.6C249,0,201,0,153.6,0c-1.4,6.2,0,14.4-.7,21.9,20.6-3.4,17.1,16.5,17.1,35v57.6C170,133,172.7,151.5,152.9,148.1Z"/><path class="cls-1" d="M402.6,22V.7H311.4c-1.4,5.5,0,14.4-.7,21.3,20.6-3.4,17.1,15.1,17.1,33.6v59c0,19.2,2.7,37-17.1,33.6v21.3h91.9V148.2c-20.6,3.4-17.1-15.1-17.1-33.6v-59C385.5,36.4,382.8,17.9,402.6,22Z"/></svg>