<?xml version="1.0" encoding="utf-8"?>
<!-- Generator: Adobe Illustrator 21.1.0, SVG Export Plug-In . SVG Version: 6.00 Build 0)  -->
<svg version="1.1" id="Ebene_1" xmlns="http://www.w3.org/2000/svg" xmlns:xlink="http://www.w3.org/1999/xlink" x="0px" y="0px"
	 viewBox="0 0 768 768" style="enable-background:new 0 0 768 768;" xml:space="preserve">
<style type="text/css">
	.st0{fill:#FFFFFF;}
	.st1{fill:none;}
	.st2{fill:#141E8C;}
</style>
<g>
	<rect x="26.7" y="216.1" class="st0" width="701.1" height="167.8"/>
	<path class="st1" d="M337.4,237.3c20.6-3.4,17.1,15.1,17.1,33.6c0,19.9,0,39.8,0,59s2.7,37-17.1,33.6c0,6.9,0,14.4,0,21.3
		c30.9,0,61,0,91.9,0c0-6.9,0-14.4,0-21.3c-20.6,3.4-17.1-15.1-17.1-33.6c0-19.2,0-39.8,0-59s-2.7-37.7,17.1-33.6
		c0-6.9,0-14.4,0-21.3c-30.2,0-61,0-91.2,0C336.7,221.5,338.1,230.4,337.4,237.3z"/>
	<path class="st1" d="M252.9,363.5c0.7-17.1-0.7-35.7,0.7-51.4c13.7-2.1,15.1,8.9,16.5,19.2c5.5,1.4,13.7,0,19.9,0.7
		c0-20.6,0-41.1,0-61.7c-6.9,0-14.4,0-21.3,0c1.4,13-2.1,21.3-15.8,19.9c0-17.1,0-35,0-52.1c32.2-4.1,44.6,11.7,48.7,35.7
		c5.5,1.4,13.7,0,19.9,0.7c0-19.2,0-38.4,0-57.6c-45.8-1.6-93.8-1.6-141.2-1.6c-1.4,6.2,0,14.4-0.7,21.9c20.6-3.4,17.1,16.5,17.1,35
		c0,19.2,0,39.1,0,57.6s2.7,37-17.1,33.6c0,6.9,0,14.4,0,21.3c47.3,0,95.3,0,142.6,0c0-19.2,0-37.7,0-56.9c-6.9,0-14.4,0-21.3,0
		C298.8,353.2,283.1,367.6,252.9,363.5z"/>
	<path class="st1" d="M33.5,216.1c-1.3-0.1-0.6,0.6-0.6,1.3c0,18.5,0,37,0,55.5c6.2,0,14.4,0.7,19.9-0.7
		c4.8-25.4,20.6-38.4,50.7-35.7C85,292.8,26.7,312,26.7,384c45.9,0,92.6,0,138.5,0c0-19.2,0-37.7,0-56.9c-6.9,0-15.1-0.7-20.6,0.7
		c-3.4,25.4-19.9,39.8-51.4,35c19.2-54.9,72.7-75.4,75.4-146.7C123.3,216.1,78.1,216.1,33.5,216.1z"/>
	<path class="st1" d="M550.7,302.3c-17.1-21.3-37.7-39.1-43.9-66.5c30.9-2.1,46.6,11,50.7,35.7c5.5,1.4,13.7,0,19.9,0.7
		c0-19.2,0-37.7,0-56.9c-43.2,0-86.4,0-129.6,0c-4.8,4.8-5.5,14.4-4.8,23.3c2.1,16.5,10.3,32.2,19.2,44.6
		c17.1,25.4,45.3,48,54.2,80.2c-32.9,4.1-48-9.6-51.4-35.7c-6.2-1.4-14.4,0-21.3-0.7c0,19.2,0,37.7,0,56.9c43.9,0,87.1,0,131,0
		c6.9-8.9,6.2-24,2.7-35.7C571.9,331.7,561.6,316,550.7,302.3z"/>
	<path class="st1" d="M692.6,296.1c-15.8-18.5-32.2-35.7-38.4-59.7c30.9-2.1,46.6,11.7,51.4,35.7c5.5,1.4,13,0,19.9,0.7
		c0-19.2,0-37.7,0-56.9c-43.2,0-85.7,0-128.9,0c-4.8,4.2-6.2,13.8-5.5,22.7c1.4,13,7.5,24.7,14.4,35.7c18.5,30.2,48,54.9,59,89.1
		c-32.9,3.4-48.7-9.6-51.4-35.7c-6.2-1.4-14.4,0-21.3-0.7c0,19.2,0,37.7,0,56.9c43.2,0,87.1,0,130.3,0c4.8-5.5,6.2-13,5.5-23.3
		C724.9,335.2,707.7,313.3,692.6,296.1z"/>
	<path class="st2" d="M0.7,0C0,0,0,0.7,0,1.4C0,257.8,0,511.5,0,768c102.9-48,233.1-82.3,384-82.3S665.1,720,768,768
		c0-256.5,0-511.5,0-768C512.2,0,256.5,0,0.7,0z M144.6,327.8c5.5-1.4,13.7-0.7,20.6-0.7c0,19.2,0,37.7,0,56.9
		c-45.9,0-92.6,0-138.5,0c0-72,58.3-91.2,76.8-147.5c-30.1-2.7-45.9,10.3-50.7,35.7c-5.5,1.4-13.7,0.7-19.9,0.7c0-18.5,0-37,0-55.5
		c0-0.7-0.7-1.4,0.6-1.3c44.6,0,89.8,0,135.1,0c-2.7,71.3-56.2,91.8-75.4,146.7C124.7,367.6,141.2,353.2,144.6,327.8z M322.2,384.7
		c-47.3,0-95.3,0-142.6,0c0-6.9,0-14.4,0-21.3c19.8,3.4,17.1-15.1,17.1-33.6s0-38.4,0-57.6c0-18.5,3.5-38.4-17.1-35
		c0.7-7.5-0.7-15.7,0.7-21.9c47.4,0,95.4,0,141.2,1.6c0,19.2,0,38.4,0,57.6c-6.2-0.7-14.4,0.7-19.9-0.7c-4.1-24-16.5-39.8-48.7-35.7
		c0,17.1,0,35,0,52.1c13.7,1.4,17.2-6.9,15.8-19.9c6.9,0,14.4,0,21.3,0c0,20.6,0,41.1,0,61.7c-6.2-0.7-14.4,0.7-19.9-0.7
		c-1.4-10.3-2.8-21.3-16.5-19.2c-1.4,15.7,0,34.3-0.7,51.4c30.2,4.1,45.9-10.3,48-35.7c6.9,0,14.4,0,21.3,0
		C322.2,347,322.2,365.5,322.2,384.7z M429.3,237.3c-19.8-4.1-17.1,14.4-17.1,33.6s0,39.8,0,59c0,18.5-3.5,37,17.1,33.6
		c0,6.9,0,14.4,0,21.3c-30.9,0-61,0-91.9,0c0-6.9,0-14.4,0-21.3c19.8,3.4,17.1-14.4,17.1-33.6s0-39.1,0-59c0-18.5,3.5-37-17.1-33.6
		c0.7-6.9-0.7-15.8,0.7-21.3c30.2,0,61,0,91.2,0C429.3,222.9,429.3,230.4,429.3,237.3z M574.7,383.9c-43.9,0-87.1,0-131,0
		c0-19.2,0-37.7,0-56.9c6.9,0.7,15.1-0.7,21.3,0.7c3.4,26.1,18.5,39.8,51.4,35.7c-8.9-32.2-37.1-54.8-54.2-80.2
		c-8.9-12.4-17.1-28.1-19.2-44.6c-0.7-8.9,0-18.5,4.8-23.3c43.2,0,86.4,0,129.6,0c0,19.2,0,37.7,0,56.9c-6.2-0.7-14.4,0.7-19.9-0.7
		c-4.1-24.7-19.8-37.8-50.7-35.7c6.2,27.4,26.8,45.2,43.9,66.5c10.9,13.7,21.2,29.4,26.7,45.9C580.9,359.9,581.6,375,574.7,383.9z
		 M722.1,383.9c-43.2,0-87.1,0-130.3,0c0-19.2,0-37.7,0-56.9c6.9,0.7,15.1-0.7,21.3,0.7c2.7,26.1,18.5,39.1,51.4,35.7
		c-11-34.2-40.5-58.9-59-89.1c-6.9-11-13-22.7-14.4-35.7c-0.7-8.9,0.7-18.5,5.5-22.7c43.2,0,85.7,0,128.9,0c0,19.2,0,37.7,0,56.9
		c-6.9-0.7-14.4,0.7-19.9-0.7c-4.8-24-20.5-37.8-51.4-35.7c6.2,24,22.6,41.2,38.4,59.7c15.1,17.2,32.3,39.1,35,64.5
		C728.3,370.9,726.9,378.4,722.1,383.9z"/>
</g>
</svg>
